<svg width="328" height="46" viewBox="0 0 328 46" fill="none" xmlns="http://www.w3.org/2000/svg">
<path d="M146.046 0.86C146.946 0.86 147.266 1.38 147.266 1.99V6.9C147.266 7.51 146.926 8 146.046 8H143.556C142.566 8 142.336 7.49 142.336 6.87V6.02H143.096V6.82C143.096 7.15 143.216 7.32 143.636 7.32H143.716H145.936C146.356 7.32 146.506 7.12 146.506 6.78V5.02H143.496C142.616 5.02 142.306 4.5 142.306 3.89V1.99C142.306 1.38 142.626 0.86 143.536 0.86H146.046ZM146.506 4.33V2.1C146.506 1.72 146.356 1.55 145.916 1.55H143.656C143.216 1.55 143.066 1.73 143.066 2.1V3.78C143.066 4.15 143.206 4.33 143.646 4.33H146.506ZM148.752 8V6.96H149.612V8H148.752ZM180.383 3.85C181.263 3.85 181.573 4.36 181.573 4.97V6.87C181.573 7.48 181.253 8 180.353 8H177.843C176.933 8 176.613 7.48 176.613 6.87V1.96C176.613 1.35 176.953 0.85 177.843 0.85H180.323C181.313 0.85 181.543 1.37 181.543 1.99V2.84H180.783V2.04C180.783 1.71 180.663 1.54 180.253 1.54H180.163H177.953C177.523 1.54 177.373 1.74 177.373 2.08V3.85H180.383ZM180.813 6.76V5.08C180.813 4.71 180.673 4.53 180.233 4.53H177.373V6.76C177.373 7.14 177.523 7.31 177.963 7.31H180.223C180.663 7.31 180.813 7.13 180.813 6.76ZM187.168 4.31C187.658 4.39 187.938 4.68 187.938 5.2V6.9C187.938 7.5 187.598 8 186.718 8H184.278C183.288 8 183.058 7.49 183.058 6.87V6.02H183.808V6.82C183.808 7.15 183.938 7.32 184.348 7.32H186.588C187.018 7.32 187.178 7.12 187.178 6.77V5.23C187.178 4.88 187.018 4.69 186.588 4.69H184.808V4.02H186.518C186.958 4.02 187.088 3.83 187.088 3.48V2.1C187.088 1.74 186.938 1.54 186.488 1.54H184.348C183.938 1.54 183.808 1.71 183.808 2.04V2.84H183.058V1.99C183.058 1.37 183.288 0.85 184.278 0.85H186.618C187.518 0.85 187.838 1.37 187.838 1.98V3.44C187.838 3.94 187.618 4.2 187.168 4.31ZM4.31711 20V18.38H0.677109V17.95C0.677109 17.38 0.737109 17.02 1.20711 16.41L3.91711 12.85H4.82711L1.66711 17C1.47711 17.24 1.42711 17.48 1.42711 17.64V17.69H4.32711V15.78H5.07711V17.69H6.31711V18.38H5.07711V20H4.31711ZM8.70148 20C7.82148 20 7.51148 19.48 7.51148 18.87V13.99C7.51148 13.37 7.83148 12.86 8.74148 12.86H11.4815C12.3815 12.86 12.7015 13.37 12.7015 13.99V18.87C12.7015 19.48 12.3915 20 11.5115 20H8.70148ZM8.86148 19.32H11.3515C11.7915 19.32 11.9415 19.14 11.9415 18.76V14.1C11.9415 13.73 11.7915 13.54 11.3415 13.54H8.87148C8.42148 13.54 8.27148 13.73 8.27148 14.1V18.76C8.27148 19.14 8.42148 19.32 8.86148 19.32ZM15.5179 20C14.6379 20 14.3279 19.48 14.3279 18.87V13.99C14.3279 13.37 14.6479 12.86 15.5579 12.86H18.2979C19.1979 12.86 19.5179 13.37 19.5179 13.99V18.87C19.5179 19.48 19.2079 20 18.3279 20H15.5179ZM15.6779 19.32H18.1679C18.6079 19.32 18.7579 19.14 18.7579 18.76V14.1C18.7579 13.73 18.6079 13.54 18.1579 13.54H15.6879C15.2379 13.54 15.0879 13.73 15.0879 14.1V18.76C15.0879 19.14 15.2379 19.32 15.6779 19.32ZM102.306 20V12.85H106.776V13.54H103.066V16.1H106.596V16.81H103.066V20H102.306ZM108.088 20V12.85H108.848V20H108.088ZM110.334 20V12.85H114.804V13.54H111.094V16.1H114.624V16.81H111.094V20H110.334ZM118.175 20V13.54H115.735V12.85H121.385V13.54H118.935V20H118.175ZM122.482 20V12.85H123.242V15.96H127.232V12.85H127.982V20H127.232V16.65H123.242V20H122.482ZM182.994 20L182.334 18.21H178.864L178.204 20H177.394L180.114 12.85H181.094L183.804 20H182.994ZM179.114 17.54H182.084L180.594 13.51L179.114 17.54ZM189.119 12.85H189.909L187.179 20H186.189L183.459 12.85H184.249L186.689 19.39L189.119 12.85ZM190.978 20V12.85H195.448V13.54H191.738V16.01H195.268V16.7H191.738V19.32H195.448V20H190.978ZM202.657 12.85L202.667 20H201.527L197.627 13.65V20H196.877V12.85H197.987L201.917 19.24V12.85H202.657ZM205.342 20C204.462 20 204.152 19.48 204.152 18.87V12.86H204.912V18.76C204.912 19.14 205.062 19.32 205.502 19.32H208.332C208.772 19.32 208.922 19.14 208.922 18.76V12.86H209.682V18.87C209.682 19.48 209.372 20 208.492 20H205.342ZM211.174 20V12.85H215.644V13.54H211.934V16.01H215.464V16.7H211.934V19.32H215.644V20H211.174ZM216.972 21.4L217.452 18.99H218.192L217.622 21.4H216.972ZM309.512 12.85L309.522 20H308.382L304.482 13.65V20H303.732V12.85H304.842L308.772 19.24V12.85H309.512ZM311.008 20V12.85H315.478V13.54H311.768V16.01H315.298V16.7H311.768V19.32H315.478V20H311.008ZM318.806 20L316.486 12.85H317.316L319.326 19.31L321.366 12.85H322.406L324.456 19.31L326.456 12.85H327.286L324.976 20H323.906L321.886 13.66L319.866 20H318.806ZM153.207 32V29.48L150.487 24.85H151.357L153.587 28.75L155.787 24.85H156.657L153.947 29.48V32H153.207ZM158.745 32C157.865 32 157.555 31.48 157.555 30.87V25.99C157.555 25.37 157.875 24.86 158.785 24.86H162.095C162.995 24.86 163.315 25.37 163.315 25.99V30.87C163.315 31.48 163.005 32 162.125 32H158.745ZM158.905 31.32H161.965C162.405 31.32 162.555 31.14 162.555 30.76V26.1C162.555 25.73 162.405 25.54 161.955 25.54H158.915C158.465 25.54 158.315 25.73 158.315 26.1V30.76C158.315 31.14 158.465 31.32 158.905 31.32ZM170.042 27.85C170.042 28.46 169.732 28.98 168.852 28.98H168.362L170.032 32H169.202L167.532 28.98H165.552V32H164.802V24.85H168.822C169.722 24.85 170.042 25.37 170.042 25.99V27.85ZM165.552 28.29H168.692C169.142 28.29 169.282 28.11 169.282 27.74V26.1C169.282 25.72 169.142 25.54 168.682 25.54H165.552V28.29ZM171.335 32V24.85H172.075V29.02L175.465 24.85H176.355L173.735 28.09L176.575 32H175.705L173.255 28.67L172.075 30.14V32H171.335ZM5.83543 36.85L5.84543 44H4.70543L0.80543 37.65V44H0.0554297V36.85H1.16543L5.09543 43.24V36.85H5.83543ZM9.70082 44V41.48L6.98082 36.85H7.85082L10.0808 40.75L12.2808 36.85H13.1508L10.4408 41.48V44H9.70082ZM153.208 44V37.54H151.848V36.85H153.958V44H153.208ZM156.822 44C155.942 44 155.632 43.48 155.632 42.87V37.99C155.632 37.37 155.952 36.86 156.862 36.86H159.602C160.502 36.86 160.822 37.37 160.822 37.99V42.87C160.822 43.48 160.512 44 159.632 44H156.822ZM156.982 43.32H159.472C159.912 43.32 160.062 43.14 160.062 42.76V38.1C160.062 37.73 159.912 37.54 159.462 37.54H156.992C156.542 37.54 156.392 37.73 156.392 38.1V42.76C156.392 43.14 156.542 43.32 156.982 43.32ZM163.638 44C162.758 44 162.448 43.48 162.448 42.87V37.99C162.448 37.37 162.768 36.86 163.678 36.86H166.418C167.318 36.86 167.638 37.37 167.638 37.99V42.87C167.638 43.48 167.328 44 166.448 44H163.638ZM163.798 43.32H166.288C166.728 43.32 166.878 43.14 166.878 42.76V38.1C166.878 37.73 166.728 37.54 166.278 37.54H163.808C163.358 37.54 163.208 37.73 163.208 38.1V42.76C163.208 43.14 163.358 43.32 163.798 43.32ZM169.8 44V37.54H168.44V36.85H170.55V44H169.8ZM176.495 40.31C176.985 40.39 177.265 40.68 177.265 41.2V42.9C177.255 43.5 176.925 44 176.045 44H173.395C172.515 44 172.185 43.5 172.175 42.9V41.2C172.175 40.67 172.455 40.39 172.945 40.31C172.495 40.21 172.275 39.94 172.275 39.44V37.99C172.275 37.37 172.595 36.85 173.495 36.85H175.945C176.845 36.85 177.165 37.37 177.165 37.98V39.44C177.165 39.94 176.945 40.2 176.495 40.31ZM173.025 38.09V39.48C173.025 39.83 173.165 40.02 173.605 40.02H174.815H175.845C176.275 40.02 176.415 39.83 176.415 39.48V38.09C176.415 37.73 176.265 37.53 175.815 37.53H173.945H173.625C173.175 37.54 173.025 37.73 173.025 38.09ZM176.505 42.78V41.23C176.505 40.88 176.345 40.69 175.915 40.69H174.815H173.525C173.095 40.68 172.935 40.88 172.935 41.23V42.78C172.935 43.13 173.095 43.32 173.525 43.33H173.945H175.915C176.345 43.33 176.505 43.13 176.505 42.78ZM178.657 45.4L179.137 42.99H179.877L179.307 45.4H178.657ZM308.882 44C308.002 44 307.692 43.48 307.692 42.87V36.86H308.452V42.76C308.452 43.14 308.602 43.32 309.042 43.32H311.872C312.312 43.32 312.462 43.14 312.462 42.76V36.86H313.222V42.87C313.222 43.48 312.912 44 312.032 44H308.882ZM318.804 40.03C319.684 40.03 320.014 40.54 320.014 41.16V42.87C320.014 43.49 319.714 44 318.814 44H315.944C314.944 44 314.714 43.49 314.714 42.87V42.02H315.474V42.79C315.474 43.13 315.624 43.32 316.034 43.32H318.664C319.114 43.32 319.264 43.14 319.264 42.76V41.27C319.264 40.9 319.104 40.71 318.664 40.71H315.944C315.064 40.71 314.754 40.19 314.754 39.58V37.99C314.754 37.37 315.074 36.85 315.984 36.85H318.724C319.714 36.85 319.944 37.37 319.944 37.99V38.84H319.184V38.07C319.184 37.73 319.034 37.54 318.624 37.54H316.114C315.664 37.54 315.514 37.72 315.514 38.1V39.48C315.514 39.85 315.664 40.03 316.104 40.03H318.804ZM326.544 44L325.884 42.21H322.414L321.754 44H320.944L323.664 36.85H324.644L327.354 44H326.544ZM322.664 41.54H325.634L324.144 37.51L322.664 41.54Z" fill="black" fill-opacity="0.5"/>
</svg>
